<svg width="27" height="26" viewBox="0 0 27 26" fill="none" xmlns="http://www.w3.org/2000/svg">
<path opacity="0.5" d="M26.5625 13C26.5625 20.1799 20.6165 26 13.2812 26C5.94602 26 0 20.1799 0 13C0 5.8201 5.94602 0 13.2812 0C20.6165 0 26.5625 5.8201 26.5625 13Z" fill="#26415E"/>
<path d="M14.875 6.75922C14.875 6.34548 14.7071 5.94869 14.4082 5.65613C14.1093 5.36358 13.7039 5.19922 13.2812 5.19922C12.8586 5.19922 12.4532 5.36358 12.1543 5.65613C11.8554 5.94869 11.6875 6.34548 11.6875 6.75922V11.4392H6.90625C6.48356 11.4392 6.07819 11.6036 5.7793 11.8961C5.48041 12.1887 5.3125 12.5855 5.3125 12.9992C5.3125 13.413 5.48041 13.8097 5.7793 14.1023C6.07819 14.3949 6.48356 14.5592 6.90625 14.5592H11.6875V19.2392C11.6875 19.653 11.8554 20.0497 12.1543 20.3423C12.4532 20.6349 12.8586 20.7992 13.2812 20.7992C13.7039 20.7992 14.1093 20.6349 14.4082 20.3423C14.7071 20.0497 14.875 19.653 14.875 19.2392V14.5592H19.6562C20.0789 14.5592 20.4843 14.3949 20.7832 14.1023C21.0821 13.8097 21.25 13.413 21.25 12.9992C21.25 12.5855 21.0821 12.1887 20.7832 11.8961C20.4843 11.6036 20.0789 11.4392 19.6562 11.4392H14.875V6.75922Z" fill="#26415E"/>
</svg>
