<svg width="23" height="26" viewBox="0 0 23 26" fill="none" xmlns="http://www.w3.org/2000/svg">
<path d="M4.59961 12.0067C4.59961 8.52344 4.59961 6.78179 5.6768 5.69949C6.75527 4.61719 8.48925 4.61719 11.9598 4.61719H15.6398C19.1091 4.61719 20.8443 4.61719 21.9215 5.69949C23 6.78179 23 8.52344 23 12.0067V18.1658C23 21.6491 23 23.3907 21.9215 24.473C20.8443 25.5553 19.1091 25.5553 15.6398 25.5553H11.9598C8.48925 25.5553 6.75527 25.5553 5.6768 24.473C4.59833 23.3907 4.59961 21.6491 4.59961 18.1658V12.0067Z" fill="#26415E"/>
<path opacity="0.5" d="M1.49759 1.49759C-1.52326e-07 2.9939 0 5.40384 0 10.2224V12.7781C0 17.5967 -1.52326e-07 20.0066 1.49759 21.5029C2.28599 22.2926 3.32868 22.6657 4.84544 22.842C4.6001 21.7687 4.6001 20.2915 4.6001 18.1653V12.0075C4.6001 8.52424 4.6001 6.78259 5.67729 5.70029C6.75576 4.61799 8.48974 4.61799 11.9603 4.61799H15.6403C17.7513 4.61799 19.2182 4.61799 20.289 4.86077C20.1127 3.33635 19.7395 2.28983 18.9473 1.49759C17.451 -1.52326e-07 15.041 0 10.2224 0C5.40384 0 2.9939 -1.52326e-07 1.49759 1.49759Z" fill="#26415E"/>
</svg>
