<svg width="26" height="25" viewBox="0 0 26 25" fill="none" xmlns="http://www.w3.org/2000/svg">
<path d="M16.2197 2.34375C17.1621 1.4207 18.2474 1.30235 18.9756 1.77539C19.7031 2.24841 20.5882 2.92644 21.5723 3.88965C22.4332 4.73238 23.0705 5.49992 23.5391 6.1543L23.7295 6.42773C24.1836 7.09803 24.0937 8.11572 23.1504 9.03906L8.96582 22.9238C8.6954 23.1885 8.39958 23.3234 8.12402 23.3496C7.07572 23.4484 5.03484 23.5474 1.81543 23.3271H1.81348C1.75813 23.3233 1.71152 23.3006 1.68066 23.2705C1.65048 23.241 1.6378 23.2069 1.63574 23.1777L1.63477 23.1768C1.40998 20.0296 1.51195 18.0369 1.6123 17.0166C1.63659 16.773 1.76382 16.4951 2.03516 16.2295L16.2197 2.34473V2.34375Z" stroke="#26415E" stroke-width="3"/>
<path d="M14.6719 2.11035C16.0376 2.96775 17.667 4.19188 19.4463 5.93262C21.2199 7.66945 22.4695 9.26107 23.3457 10.5957L20.7197 13.166C19.9965 11.9468 18.8091 10.3026 16.8877 8.42188C14.9702 6.545 13.2941 5.38288 12.0498 4.6748L14.6719 2.11035Z" fill="#26415E" stroke="#26415E" stroke-width="0.5"/>
</svg>
