<svg width="24" height="26" viewBox="0 0 24 26" fill="none" xmlns="http://www.w3.org/2000/svg">
<path fill-rule="evenodd" clip-rule="evenodd" d="M17.2216 10.7829C17.0115 10.5732 16.7268 10.4554 16.43 10.4554C16.1332 10.4554 15.8485 10.5732 15.6385 10.7829L13.0697 13.3517V1.12011C13.0697 0.823039 12.9517 0.538134 12.7416 0.328073C12.5315 0.118011 12.2466 0 11.9496 0C11.6525 0 11.3676 0.118011 11.1575 0.328073C10.9475 0.538134 10.8295 0.823039 10.8295 1.12011V13.3517L8.26067 10.7829C8.04833 10.5851 7.76749 10.4774 7.47731 10.4825C7.18712 10.4876 6.91025 10.6052 6.70503 10.8104C6.4998 11.0156 6.38225 11.2925 6.37713 11.5827C6.37201 11.8728 6.47972 12.1537 6.67758 12.366L11.158 16.8465C11.368 17.0562 11.6527 17.174 11.9496 17.174C12.2464 17.174 12.5311 17.0562 12.7411 16.8465L17.2216 12.366C17.4313 12.156 17.5491 11.8713 17.5491 11.5745C17.5491 11.2776 17.4313 10.993 17.2216 10.7829Z" fill="#26415E"/>
<path d="M20.5324 13.0703C19.8633 13.0703 19.2779 13.4795 18.8044 13.953L14.324 18.4334C14.0119 18.7454 13.6415 18.993 13.2338 19.1618C12.8261 19.3307 12.3891 19.4176 11.9478 19.4176C11.5066 19.4176 11.0696 19.3307 10.6619 19.1618C10.2542 18.993 9.88376 18.7454 9.57172 18.4334L5.09128 13.953C4.61784 13.4795 4.0324 13.0703 3.36332 13.0703H0C0 16.2391 1.25879 19.2781 3.49944 21.5187C5.7401 23.7594 8.77908 25.0182 11.9478 25.0182C15.1166 25.0182 18.1556 23.7594 20.3963 21.5187C22.6369 19.2781 23.8957 16.2391 23.8957 13.0703H20.5324Z" fill="#26415E"/>
</svg>
