<svg width="26" height="27" viewBox="0 0 26 27" fill="none" xmlns="http://www.w3.org/2000/svg">
<path fill-rule="evenodd" clip-rule="evenodd" d="M7.78399 0.158596C11.1252 -0.0528653 14.4764 -0.0528653 17.8176 0.158596C18.9835 0.232915 20.0814 0.732868 20.9029 1.56348C21.7243 2.3941 22.2121 3.4975 22.2735 4.6641C22.3529 6.12159 22.4045 7.55724 22.4244 8.98891L13.9178 15.2696C13.5858 15.5063 13.1883 15.6333 12.7806 15.6329C12.373 15.6326 11.9757 15.5048 11.6442 15.2676L3.1792 8.97303C3.19906 7.55128 3.2487 6.11497 3.32813 4.6641C3.38948 3.49782 3.87695 2.39468 4.698 1.56411C5.51906 0.733541 6.6185 0.233383 7.78399 0.158596Z" fill="#26415E"/>
<path d="M0.972983 10.4258L10.1647 17.2565C11.6957 18.3963 13.8581 18.3983 15.393 17.2664L24.6403 10.4397C24.9203 10.8328 25.1169 11.2816 25.2022 11.7721C25.4763 13.3566 25.6053 14.9928 25.6053 17.2565C25.6053 19.5202 25.4763 21.1564 25.2022 22.741C24.9282 24.3097 23.5243 25.4633 21.8425 25.644C18.9335 25.9558 15.9113 26.1901 12.8037 26.1901C9.69607 26.1901 6.67387 25.9558 3.76286 25.644C2.08298 25.4653 0.679102 24.3097 0.405079 22.741C0.127083 21.1584 0 19.5202 0 17.2565C0 14.9928 0.127084 13.3566 0.403093 11.7721C0.486115 11.2858 0.681231 10.8236 0.972983 10.4258Z" fill="#93A0AF"/>
<path fill-rule="evenodd" clip-rule="evenodd" d="M8.69922 9.63289C8.69922 8.94783 9.25521 8.39184 9.94027 8.39184H15.659C15.9882 8.39184 16.3038 8.52259 16.5366 8.75533C16.7693 8.98807 16.9001 9.30374 16.9001 9.63289C16.9001 9.96203 16.7693 10.2777 16.5366 10.5104C16.3038 10.7432 15.9882 10.8739 15.659 10.8739H9.94027C9.61112 10.8739 9.29546 10.7432 9.06271 10.5104C8.82997 10.2777 8.69922 9.96203 8.69922 9.63289ZM8.69922 4.43636C8.69922 3.7513 9.25521 3.19531 9.94027 3.19531H15.659C15.9882 3.19531 16.3038 3.32607 16.5366 3.55881C16.7693 3.79155 16.9001 4.10722 16.9001 4.43636C16.9001 4.76551 16.7693 5.08117 16.5366 5.31392C16.3038 5.54666 15.9882 5.67741 15.659 5.67741H9.94027C9.61112 5.67741 9.29546 5.54666 9.06271 5.31392C8.82997 5.08117 8.69922 4.76551 8.69922 4.43636Z" fill="#93A0AF"/>
</svg>
