<svg width="33" height="35" viewBox="0 0 33 35" fill="none" xmlns="http://www.w3.org/2000/svg">
<path d="M2.00147 16.4994V20.1248C2.00124 21.0769 2.18858 22.0197 2.55278 22.8994C2.91698 23.7791 3.45092 24.5785 4.12408 25.2518C4.79725 25.9251 5.59647 26.4593 6.47609 26.8237C7.3557 27.1881 8.29849 27.3756 9.25061 27.3756H30.998M2.00147 7.4375H23.7489C24.7012 7.43728 25.6441 7.62467 26.5239 7.98898C27.4038 8.35329 28.2032 8.88738 28.8765 9.56072C29.5499 10.2341 30.084 11.0335 30.4483 11.9133C30.8126 12.7931 31 13.7361 30.9997 14.6884V18.3121" stroke="#26415E" stroke-width="4" stroke-linecap="round" stroke-linejoin="round"/>
<path d="M25.5619 21.9364L31 27.3729L25.5619 32.811M7.43814 12.8746L2 7.43643L7.43814 2" stroke="#26415E" stroke-width="4" stroke-linecap="round" stroke-linejoin="round"/>
</svg>
