<svg width="25" height="25" viewBox="0 0 25 25" fill="none" xmlns="http://www.w3.org/2000/svg">
<path d="M12.5 25C19.4036 25 25 19.4036 25 12.5C25 5.59644 19.4036 0 12.5 0C5.59644 0 0 5.59644 0 12.5C0 19.4036 5.59644 25 12.5 25Z" fill="#66757F"/>
<path d="M7.29188 8.33377C8.63424 8.33377 9.72244 7.24557 9.72244 5.90321C9.72244 4.56085 8.63424 3.47266 7.29188 3.47266C5.94952 3.47266 4.86133 4.56085 4.86133 5.90321C4.86133 7.24557 5.94952 8.33377 7.29188 8.33377Z" fill="#5B6876"/>
<path d="M13.889 13.194C15.0396 13.194 15.9723 12.2613 15.9723 11.1107C15.9723 9.96008 15.0396 9.02734 13.889 9.02734C12.7384 9.02734 11.8057 9.96008 11.8057 11.1107C11.8057 12.2613 12.7384 13.194 13.889 13.194Z" fill="#5B6876"/>
<path d="M14.9306 21.5291C16.2729 21.5291 17.3611 20.4409 17.3611 19.0985C17.3611 17.7562 16.2729 16.668 14.9306 16.668C13.5882 16.668 12.5 17.7562 12.5 19.0985C12.5 20.4409 13.5882 21.5291 14.9306 21.5291Z" fill="#5B6876"/>
<path d="M14.5832 5.55512C15.3503 5.55512 15.9721 4.9333 15.9721 4.16623C15.9721 3.39917 15.3503 2.77734 14.5832 2.77734C13.8162 2.77734 13.1943 3.39917 13.1943 4.16623C13.1943 4.9333 13.8162 5.55512 14.5832 5.55512Z" fill="#5B6876"/>
<path d="M2.08312 13.1955C2.46665 13.1955 2.77756 12.8846 2.77756 12.5011C2.77756 12.1176 2.46665 11.8066 2.08312 11.8066C1.69959 11.8066 1.38867 12.1176 1.38867 12.5011C1.38867 12.8846 1.69959 13.1955 2.08312 13.1955Z" fill="#5B6876"/>
<path d="M20.8331 6.94553C21.2166 6.94553 21.5276 6.63462 21.5276 6.25109C21.5276 5.86755 21.2166 5.55664 20.8331 5.55664C20.4496 5.55664 20.1387 5.86755 20.1387 6.25109C20.1387 6.63462 20.4496 6.94553 20.8331 6.94553Z" fill="#5B6876"/>
<path d="M10.4161 22.2229C10.7997 22.2229 11.1106 21.912 11.1106 21.5284C11.1106 21.1449 10.7997 20.834 10.4161 20.834C10.0326 20.834 9.72168 21.1449 9.72168 21.5284C9.72168 21.912 10.0326 22.2229 10.4161 22.2229Z" fill="#5B6876"/>
<path d="M22.2219 14.5844C22.989 14.5844 23.6108 13.9626 23.6108 13.1955C23.6108 12.4285 22.989 11.8066 22.2219 11.8066C21.4548 11.8066 20.833 12.4285 20.833 13.1955C20.833 13.9626 21.4548 14.5844 22.2219 14.5844Z" fill="#5B6876"/>
<path d="M6.94455 17.3618C7.71162 17.3618 8.33344 16.7399 8.33344 15.9729C8.33344 15.2058 7.71162 14.584 6.94455 14.584C6.17749 14.584 5.55566 15.2058 5.55566 15.9729C5.55566 16.7399 6.17749 17.3618 6.94455 17.3618Z" fill="#5B6876"/>
</svg>
