<svg width="26" height="28" viewBox="0 0 26 28" fill="none" xmlns="http://www.w3.org/2000/svg">
<path d="M10.7171 1.15223C10.9809 0.794913 11.3249 0.504508 11.7214 0.304382C12.1179 0.104257 12.5558 0 13 0C13.4442 0 13.8821 0.104257 14.2786 0.304382C14.6751 0.504508 15.0191 0.794913 15.2829 1.15223C15.635 1.62828 16.127 1.98245 16.6902 2.16526C17.2534 2.34808 17.8596 2.3504 18.4241 2.17192C18.8477 2.03783 19.2968 2.00508 19.7354 2.07628C20.1739 2.14749 20.5896 2.32067 20.949 2.58188C21.3084 2.8431 21.6014 3.18504 21.8045 3.58019C22.0075 3.97534 22.115 4.41265 22.1182 4.85692C22.1233 5.44873 22.3131 6.02417 22.661 6.50292C23.0089 6.98167 23.4977 7.33984 24.059 7.52743C24.4805 7.66783 24.8632 7.90526 25.1762 8.2206C25.4893 8.53593 25.7239 8.92037 25.8611 9.34295C25.9984 9.76552 26.0346 10.2144 25.9666 10.6535C25.8987 11.0926 25.7286 11.5096 25.4701 11.871C25.1262 12.3528 24.9414 12.9299 24.9414 13.5218C24.9414 14.1137 25.1262 14.6909 25.4701 15.1726C25.7286 15.534 25.8987 15.951 25.9666 16.3901C26.0346 16.8292 25.9984 17.2781 25.8611 17.7007C25.7239 18.1233 25.4893 18.5077 25.1762 18.823C24.8632 19.1384 24.4805 19.3758 24.059 19.5162C23.4977 19.7038 23.0089 20.062 22.661 20.5407C22.3131 21.0195 22.1233 21.5949 22.1182 22.1867C22.115 22.6311 22.0076 23.0685 21.8044 23.4638C21.6013 23.859 21.3082 24.201 20.9487 24.4623C20.5892 24.7235 20.1734 24.8966 19.7347 24.9678C19.296 25.0389 18.8468 25.006 18.4232 24.8717C17.8587 24.6934 17.2527 24.6959 16.6898 24.8787C16.1268 25.0615 15.635 25.4155 15.2829 25.8914C15.0191 26.2487 14.6751 26.5391 14.2786 26.7392C13.8821 26.9394 13.4442 27.0436 13 27.0436C12.5558 27.0436 12.1179 26.9394 11.7214 26.7392C11.3249 26.5391 10.9809 26.2487 10.7171 25.8914C10.365 25.4154 9.87298 25.0612 9.30981 24.8784C8.74664 24.6956 8.14042 24.6932 7.57586 24.8717C7.1523 25.0058 6.70317 25.0386 6.26463 24.9673C5.8261 24.8961 5.41041 24.723 5.05103 24.4617C4.69165 24.2005 4.39862 23.8586 4.19554 23.4634C3.99246 23.0683 3.885 22.631 3.88181 22.1867C3.87669 21.5949 3.68693 21.0195 3.33899 20.5407C2.99106 20.062 2.50233 19.7038 1.94102 19.5162C1.51947 19.3758 1.13678 19.1384 0.823758 18.823C0.510738 18.5077 0.276141 18.1233 0.138855 17.7007C0.00156869 17.2781 -0.034569 16.8292 0.0333514 16.3901C0.101272 15.951 0.271352 15.534 0.529898 15.1726C0.87377 14.6909 1.05861 14.1137 1.05861 13.5218C1.05861 12.9299 0.87377 12.3528 0.529898 11.871C0.271352 11.5096 0.101272 11.0926 0.0333514 10.6535C-0.034569 10.2144 0.00156869 9.76552 0.138855 9.34295C0.276141 8.92037 0.510738 8.53593 0.823758 8.2206C1.13678 7.90526 1.51947 7.66783 1.94102 7.52743C2.50233 7.33984 2.99106 6.98167 3.33899 6.50292C3.68693 6.02417 3.87669 5.44873 3.88181 4.85692C3.88495 4.41254 3.99242 3.97511 4.19556 3.57986C4.39869 3.18462 4.69181 2.8426 5.05131 2.58137C5.41082 2.32014 5.82664 2.14699 6.26531 2.07587C6.70397 2.00475 7.15321 2.03765 7.57683 2.17192C8.14126 2.35018 8.74726 2.34774 9.31024 2.16494C9.87321 1.98213 10.365 1.62808 10.7171 1.15223Z" fill="#FF822D"/>
<path d="M21.7588 18.5785C18.9655 23.4159 12.7797 25.0735 7.94326 22.2802C3.10677 19.487 1.44821 13.3012 4.24147 8.46474C7.03473 3.62825 13.2205 1.9697 18.057 4.76295C22.8935 7.55621 24.552 13.742 21.7588 18.5785Z" fill="#FCD53F"/>
</svg>
