<svg width="170" height="202" viewBox="0 0 170 202" fill="none" xmlns="http://www.w3.org/2000/svg">
<g clip-path="url(#clip0_2374_6583)">
<mask id="mask0_2374_6583" style="mask-type:luminance" maskUnits="userSpaceOnUse" x="0" y="0" width="170" height="202">
<path d="M150 0H20C8.9543 0 0 8.9543 0 20V182C0 193.046 8.9543 202 20 202H150C161.046 202 170 193.046 170 182V20C170 8.9543 161.046 0 150 0Z" fill="white"/>
</mask>
<g mask="url(#mask0_2374_6583)">
<path d="M150 0H20C8.9543 0 0 8.9543 0 20V182C0 193.046 8.9543 202 20 202H150C161.046 202 170 193.046 170 182V20C170 8.9543 161.046 0 150 0Z" fill="#E4E4E4"/>
<g opacity="0.78">
<path d="M119.68 50.3345C119.739 51.669 119.554 52.8071 119.209 53.8766C118.857 54.9666 118.233 55.9584 117.55 56.8976C116.538 58.2916 115.58 59.6878 115.1 61.4086C114.865 62.2519 114.842 63.0494 114.945 63.8401C115.089 64.9484 115.866 65.7117 116.798 66.2693C117.845 66.8954 118.892 67.5307 119.808 68.3259C121.042 69.3954 122.233 70.5152 123.3 71.7698C124.365 73.0221 125.359 74.3201 126.287 75.6706C127.029 76.7515 127.653 77.9124 128.135 79.1419C128.318 79.6126 128.585 80.0491 128.812 80.4993C129.664 82.188 130.267 83.9728 130.727 85.7872C131.351 88.2507 131.789 90.7576 132.034 93.2987C132.178 94.791 132.281 96.2901 132.335 97.7823C132.367 98.653 132.415 99.5419 132.326 100.431C132.251 101.18 132.358 101.955 132.285 102.728C132.182 103.815 132.251 104.919 132.144 106.005C131.981 107.652 131.906 109.309 131.629 110.945C131.41 112.243 131.287 113.559 131.017 114.844C130.745 116.144 130.368 117.426 129.998 118.703C129.335 120.977 128.645 123.256 127.571 125.369C126.712 127.065 125.848 128.761 124.899 130.413C123.716 132.474 122.363 134.419 121.065 136.405C119.879 138.221 118.515 139.91 117.127 141.576C116.378 142.479 115.626 143.379 114.84 144.25C113.391 145.856 111.798 147.312 110.162 148.731C108.809 149.903 107.342 150.907 105.848 151.869C104.886 152.488 103.859 153.018 102.863 153.585C101.835 154.172 100.758 154.609 99.6638 155.025C98.3453 155.527 97.0404 156.064 95.6487 156.355C95.0614 156.478 94.4947 156.707 93.9142 156.876C91.9604 157.442 89.9745 157.824 87.9498 157.858C86.3479 157.886 84.7437 157.774 83.1509 157.463C82.1271 157.264 81.0782 157.154 80.0499 156.951C77.6504 156.478 75.2715 155.964 72.984 155.038C71.1352 154.289 69.3254 153.441 67.6114 152.458C65.6165 151.316 63.6283 150.114 61.8938 148.557C60.7055 147.49 59.4601 146.485 58.2695 145.418C56.6744 143.985 55.2279 142.403 53.7882 140.813C52.6319 139.535 51.5373 138.21 50.4564 136.873C49.1104 135.21 47.8626 133.473 46.7086 131.667C46.0893 130.696 45.3581 129.8 44.8119 128.777C44.2223 127.671 43.6876 126.544 43.2008 125.388C42.9677 124.832 42.6752 124.302 42.4376 123.745C41.9348 122.57 41.4572 121.379 41.0756 120.168C40.5248 118.42 40.0267 116.656 39.6565 114.851C39.4256 113.724 39.188 112.597 38.9526 111.468C38.5778 109.677 38.2945 107.869 38.0934 106.05C37.9106 104.393 37.7666 102.734 37.6912 101.064C37.6318 99.743 37.6089 98.4268 37.6295 97.1082C37.6637 94.9829 37.8283 92.8714 38.1231 90.7644C38.2579 89.7978 38.459 88.8494 38.6624 87.9034C39.0326 86.1826 39.645 84.5304 40.2529 82.8782C40.8996 81.1208 41.6812 79.4161 42.6661 77.8393C44.2886 75.2433 46.0596 72.7318 48.4134 70.7231C49.2612 70.001 50.0496 69.2217 50.8608 68.4653C51.1579 68.1865 51.3133 67.7958 51.4002 67.389C51.663 66.1778 51.4459 65.033 50.8997 63.9429C50.1456 62.4438 49.1149 61.1732 47.8649 60.0443C46.3613 58.6846 45.1821 57.0576 44.6108 55.0877C44.22 53.7372 44.5514 52.4003 45.0244 51.116C45.7031 49.2696 47.0308 48.031 48.8453 47.3797C50.2781 46.8655 51.7704 46.7101 53.3174 46.9181C55.3787 47.1946 57.168 48.0036 58.6877 49.3884C59.9788 50.5676 60.6187 52.0895 60.8358 53.8149C61.0575 55.5767 61.1694 57.3752 61.743 59.0594C62.1978 60.3917 62.8719 61.6623 64.0785 62.5352C64.5401 62.8711 65.0429 62.9717 65.5776 62.8689C66.7888 62.6358 67.9862 62.3364 69.202 62.1422C70.6371 61.9114 72.0585 61.6029 73.4981 61.3835C74.979 61.1595 76.4621 60.9539 77.9497 60.7847C79.3894 60.6225 80.8405 60.5517 82.2871 60.4694C83.9416 60.378 85.5983 60.2363 87.2528 60.2706C88.7816 60.3026 90.3127 60.2089 91.8415 60.3963C92.7214 60.5037 93.6172 60.4648 94.5084 60.5471C96.3983 60.723 98.2996 60.8076 100.171 61.1481C101.417 61.3743 102.264 60.8899 102.923 59.4799C103.343 58.5818 103.652 57.67 103.732 56.6439C103.832 55.3779 103.818 54.1211 103.823 52.8573C103.827 51.6302 103.887 50.3985 104.077 49.1804C104.287 47.839 105.077 46.8815 106.126 46.0771C107.018 45.3938 107.95 44.8225 109.056 44.5437C110.137 44.2741 111.213 44.1507 112.338 44.1393C113.629 44.1256 114.856 44.3495 116.005 44.8363C117.44 45.4464 118.711 46.3536 119.289 47.8893C119.6 48.7143 119.808 49.6009 119.675 50.3253L119.68 50.3345ZM71.9556 124.677C72.9383 124.547 73.994 124.677 74.8693 124.039C75.2943 123.729 75.6988 123.39 76.1399 123.107C78.0046 121.9 79.0558 120.132 79.4603 118.016C79.7665 116.411 79.7368 114.759 79.7025 113.118C79.6842 112.291 79.6522 111.459 79.6819 110.639C79.7391 109.064 79.6659 107.497 79.6134 105.929C79.5631 104.435 79.3392 102.947 79.2706 101.452C79.2386 100.762 79.1015 100.084 79.1015 99.398C79.1015 98.4862 78.9278 97.6041 78.7244 96.7266C78.4159 95.3897 77.8035 94.1534 77.3122 92.8828C76.5352 90.8741 75.5091 88.9751 74.2523 87.2086C73.5758 86.2557 73.0868 85.1862 72.4401 84.2082C71.9099 83.4106 71.4415 82.6245 70.6165 82.0715C69.8304 81.5436 69.09 80.9312 68.3976 80.2822C67.9885 79.8983 67.5772 79.5418 67.047 79.3887C66.286 79.1716 65.589 78.8059 64.8601 78.5157C63.4089 77.9353 61.9121 77.4896 60.4313 76.9938C59.4395 76.6624 58.3952 76.3288 57.4194 76.395C55.7466 76.507 54.0693 76.2054 52.3965 76.5618C51.7932 76.6898 51.1808 76.8292 50.5638 76.9252C49.6977 77.06 48.8659 77.3137 48.2123 77.9238C47.0491 79.0093 46.1647 80.273 45.8699 81.8818C45.8265 82.1195 45.7534 82.3549 45.678 82.588C45.0655 84.4687 44.3868 86.3426 44.0303 88.285C43.6373 90.4285 43.3014 92.5949 43.2282 94.7796C43.1665 96.6717 43.2282 98.5776 43.4545 100.451C43.7058 102.524 43.8612 104.624 44.5719 106.626C44.7502 107.129 45.061 107.563 45.1981 108.059C45.6734 109.787 46.5167 111.345 47.4125 112.869C48.3563 114.474 49.6451 115.826 50.8037 117.273C51.8503 118.582 53.3289 119.421 54.5949 120.49C55.6895 121.416 57.0126 121.967 58.2718 122.613C59.2659 123.123 60.3239 123.518 61.4162 123.738C62.8811 124.03 64.3642 124.318 65.8518 124.394C67.8857 124.496 69.9035 124.928 71.9579 124.677H71.9556ZM102.957 123.027C103.158 123.009 103.364 123.006 103.56 122.97C104.87 122.725 106.172 122.447 107.486 122.236C108.149 122.129 108.78 121.914 109.431 121.782C110.692 121.526 111.972 121.24 113.124 120.717C114.639 120.031 116.065 119.135 117.39 118.093C117.838 117.741 118.238 117.344 118.656 116.969C119.632 116.094 120.599 115.207 121.412 114.172C122.164 113.217 122.822 112.2 123.421 111.144C124.118 109.912 124.893 108.735 125.288 107.335C125.603 106.21 126.159 105.152 126.275 103.964C126.282 103.904 126.298 103.843 126.323 103.788C126.776 102.881 126.915 101.877 126.997 100.906C127.166 98.9181 127.258 96.9117 127.132 94.9144C127.022 93.1616 126.899 91.3997 126.604 89.6721C126.234 87.4897 125.704 85.3142 124.911 83.2552C124.042 80.9997 123.217 78.7054 122.059 76.5756C121.531 75.6066 120.713 74.8228 119.719 74.2515C118.613 73.6162 117.374 73.719 116.19 73.5431C114.986 73.3648 113.777 73.6436 112.575 73.7579C111.974 73.815 111.353 73.6939 110.779 73.8813C108.645 74.576 106.538 75.3347 104.604 76.507C104.104 76.8109 103.601 77.1469 103.053 77.3274C102.21 77.6039 101.554 78.0724 101.01 78.7579C100.66 79.2013 100.301 79.6857 99.8375 79.9782C98.4709 80.842 97.8197 82.1926 97.2027 83.5797C96.8393 84.3956 96.5925 85.2731 96.1469 86.0386C95.2351 87.6108 94.5267 89.2539 94.0262 90.9952C93.9211 91.3655 93.7977 91.7311 93.688 92.099C93.1761 93.8449 92.6208 95.5862 92.5522 97.419C92.5043 98.6667 92.5682 99.9213 92.6071 101.171C92.6642 103.006 92.6962 104.844 92.8288 106.674C92.9704 108.601 93.1967 110.522 93.4229 112.442C93.6583 114.435 93.704 116.466 94.5929 118.338C94.906 118.996 95.2259 119.64 95.7127 120.187C96.6199 121.199 97.8288 121.811 98.9257 122.565C99.449 122.924 100.077 123.013 100.717 123.093C101.481 123.189 102.207 122.965 102.955 123.022L102.957 123.027ZM86.0805 132.929C85.9617 132.182 85.8566 131.199 85.3104 130.331C84.7071 129.371 83.2949 129.302 82.6139 130.2C81.8346 131.224 81.83 132.358 82.2802 133.459C82.8584 134.869 83.937 135.877 85.2647 136.61C85.7515 136.878 85.8863 136.773 85.9777 136.233C86.1514 135.212 86.0531 134.183 86.0805 132.929ZM89.0284 131.994C88.969 133.388 89.0719 134.75 89.4261 136.08C89.5792 136.654 89.7803 136.695 90.2099 136.27C90.7812 135.703 91.4005 135.194 91.901 134.54C92.943 133.176 93.3292 131.786 92.5157 130.159C91.9238 128.975 90.6784 128.738 89.8466 129.748C89.3118 130.395 88.9256 131.124 89.0284 131.994Z" fill="#A8A8A8"/>
<path d="M71.9566 124.676C69.9045 124.93 67.8844 124.498 65.8505 124.393C64.3651 124.318 62.8798 124.03 61.4149 123.737C60.3226 123.518 59.2646 123.123 58.2705 122.613C57.0113 121.966 55.6882 121.415 54.5936 120.49C53.3276 119.418 51.849 118.58 50.8024 117.272C49.6461 115.826 48.355 114.473 47.4112 112.869C46.5154 111.345 45.6721 109.786 45.1968 108.058C45.0597 107.56 44.7489 107.126 44.5706 106.626C43.8599 104.624 43.7045 102.524 43.4532 100.451C43.2247 98.5748 43.1652 96.6712 43.2269 94.779C43.2978 92.5944 43.636 90.428 44.029 88.2845C44.3855 86.342 45.0642 84.4682 45.6767 82.5874C45.7521 82.3566 45.8229 82.1213 45.8686 81.8813C46.1657 80.2748 47.0478 79.0111 48.211 77.9233C48.8646 77.3132 49.6964 77.0595 50.5625 76.9247C51.1772 76.8287 51.7896 76.6893 52.3952 76.5613C54.0657 76.2048 55.7453 76.5065 57.4181 76.3945C58.3939 76.3283 59.4382 76.6619 60.43 76.9932C61.9108 77.4869 63.4076 77.9348 64.8588 78.5152C65.5877 78.8077 66.2847 79.1711 67.0457 79.3881C67.5759 79.539 67.9849 79.8978 68.3963 80.2817C69.0887 80.9307 69.8268 81.5431 70.6152 82.071C71.4424 82.624 71.9086 83.4101 72.4388 84.2077C73.0878 85.1857 73.5745 86.2552 74.251 87.2081C75.5056 88.9746 76.5339 90.8736 77.3109 92.8823C77.8022 94.1529 78.4123 95.3869 78.7231 96.726C78.9265 97.6036 79.0979 98.4857 79.1002 99.3975C79.1002 100.083 79.2396 100.762 79.2693 101.452C79.3378 102.946 79.5618 104.434 79.6121 105.929C79.6646 107.496 79.7378 109.064 79.6806 110.638C79.6509 111.459 79.6829 112.291 79.7012 113.118C79.7355 114.756 79.7652 116.409 79.459 118.015C79.0545 120.131 78.0033 121.9 76.1386 123.107C75.6975 123.392 75.293 123.73 74.868 124.039C73.9927 124.679 72.937 124.549 71.9543 124.676H71.9566Z" fill="#363636"/>
<path d="M102.958 123.027C102.21 122.972 101.484 123.196 100.72 123.097C100.08 123.015 99.452 122.928 98.9287 122.57C97.8295 121.815 96.6206 121.203 95.7157 120.191C95.2289 119.647 94.909 119 94.5959 118.342C93.707 116.47 93.6613 114.439 93.4259 112.446C93.1997 110.527 92.9711 108.605 92.8317 106.678C92.6992 104.848 92.6672 103.01 92.6101 101.175C92.5712 99.9254 92.5072 98.6709 92.5552 97.4231C92.6261 95.5927 93.1791 93.8491 93.691 92.1032C93.8007 91.733 93.9218 91.3696 94.0292 90.9994C94.5274 89.2581 95.2381 87.615 96.1499 86.0428C96.5932 85.2772 96.8423 84.3997 97.2056 83.5839C97.8226 82.1968 98.4739 80.8462 99.8405 79.9824C100.304 79.6899 100.663 79.2031 101.013 78.7621C101.557 78.0742 102.215 77.6081 103.056 77.3316C103.604 77.151 104.107 76.8151 104.607 76.5112C106.541 75.3388 108.648 74.5779 110.782 73.8855C111.356 73.6981 111.98 73.8192 112.578 73.7621C113.78 73.6478 114.989 73.3667 116.193 73.5472C117.377 73.7232 118.618 73.6204 119.722 74.2557C120.718 74.827 121.534 75.6108 122.062 76.5797C123.223 78.7095 124.045 81.0039 124.914 83.2594C125.707 85.3184 126.237 87.4939 126.607 89.6763C126.9 91.4039 127.023 93.1658 127.135 94.9185C127.261 96.9158 127.169 98.9199 127 100.91C126.918 101.879 126.776 102.885 126.326 103.792C126.299 103.845 126.283 103.909 126.278 103.968C126.162 105.156 125.609 106.214 125.291 107.339C124.898 108.74 124.123 109.914 123.424 111.148C122.825 112.206 122.167 113.221 121.415 114.176C120.599 115.211 119.635 116.098 118.659 116.973C118.239 117.35 117.841 117.746 117.393 118.097C116.07 119.14 114.642 120.035 113.127 120.721C111.973 121.242 110.695 121.53 109.434 121.786C108.783 121.918 108.152 122.133 107.489 122.241C106.175 122.451 104.873 122.73 103.563 122.974C103.364 123.011 103.161 123.013 102.96 123.031L102.958 123.027Z" fill="#363636"/>
<path d="M86.0806 132.93C86.0532 134.184 86.1515 135.212 85.9778 136.234C85.8864 136.773 85.7516 136.878 85.2648 136.611C83.9371 135.877 82.8585 134.87 82.2803 133.46C81.8301 132.358 81.8324 131.225 82.614 130.201C83.2973 129.305 84.7072 129.371 85.3105 130.331C85.8567 131.2 85.9618 132.182 86.0806 132.93Z" fill="#7B7B7B"/>
<path d="M89.0293 131.995C88.9265 131.124 89.3127 130.397 89.8474 129.748C90.6815 128.738 91.927 128.976 92.5166 130.16C93.3278 131.787 92.9439 133.176 91.9018 134.54C91.4037 135.194 90.7844 135.703 90.2108 136.27C89.7812 136.695 89.5801 136.654 89.427 136.08C89.0728 134.75 88.9699 133.389 89.0293 131.995Z" fill="#7B7B7B"/>
<path d="M119.066 85.7062C120.738 85.7348 122.202 83.7494 122.336 81.2716C122.47 78.7938 121.222 76.762 119.549 76.7334C117.876 76.7048 116.412 78.6903 116.279 81.168C116.145 83.6458 117.393 85.6776 119.066 85.7062Z" fill="#C9C9C9"/>
<path d="M68.5419 90.4271C70.1742 89.7753 70.9181 87.3164 70.2034 84.9352C69.4886 82.554 67.586 81.1521 65.9536 81.804C64.3213 82.4559 63.5775 84.9147 64.2922 87.2959C65.0069 89.6772 66.9096 91.079 68.5419 90.4271Z" fill="#C9C9C9"/>
<path d="M121.922 89.655C122.744 89.9806 123.681 89.5042 124.014 88.5908C124.348 87.6775 123.953 86.673 123.131 86.3474C122.309 86.0218 121.372 86.4982 121.038 87.4116C120.704 88.325 121.1 89.3294 121.922 89.655Z" fill="#C9C9C9"/>
<path d="M71.7549 94.9882C72.5968 95.3218 73.5564 94.8337 73.8984 93.8981C74.2403 92.9625 73.835 91.9336 72.9931 91.6001C72.1512 91.2665 71.1916 91.7546 70.8496 92.6902C70.5077 93.6258 70.913 94.6546 71.7549 94.9882Z" fill="#C9C9C9"/>
</g>
<path d="M30.9008 16.3496L32.8969 21.9181L37.6219 24.2705L32.8969 26.6229L30.9008 32.1914L28.9047 26.6229L24.1797 24.2705L28.9047 21.9181L30.9008 16.3496Z" fill="#B4B4B4"/>
<path d="M110.625 165.947L113.204 173.14L119.307 176.179L113.204 179.218L110.625 186.411L108.047 179.218L101.943 176.179L108.047 173.14L110.625 165.947Z" fill="#B4B4B4"/>
<path d="M150.214 129.113L152.21 134.682L156.935 137.034L152.21 139.387L150.214 144.955L148.218 139.387L143.493 137.034L148.218 134.682L150.214 129.113Z" fill="#B4B4B4"/>
<path d="M21.6303 126.947L23.6263 132.516L28.3514 134.868L23.6263 137.221L21.6303 142.789L19.6342 137.221L14.9092 134.868L19.6342 132.516L21.6303 126.947Z" fill="#B4B4B4"/>
<path d="M69.7191 175.27L71.7152 180.838L76.4402 183.19L71.7152 185.543L69.7191 191.111L67.7231 185.543L62.998 183.19L67.7231 180.838L69.7191 175.27Z" fill="#B4B4B4"/>
<path d="M95.7338 20.502L97.7299 26.0705L102.455 28.4229L97.7299 30.7752L95.7338 36.3438L93.7377 30.7752L89.0127 28.4229L93.7377 26.0705L95.7338 20.502Z" fill="#5C5C5C"/>
<path d="M137.105 175.27L138.509 179.186L141.833 180.841L138.509 182.495L137.105 186.412L135.701 182.495L132.378 180.841L135.701 179.186L137.105 175.27Z" fill="#5C5C5C"/>
<path d="M143.493 18.8984L144.677 22.2021L147.481 23.5977L144.677 24.9933L143.493 28.2969L142.309 24.9933L139.506 23.5977L142.309 22.2021L143.493 18.8984Z" fill="#5C5C5C"/>
<path d="M17.6427 75.9238L18.8269 79.2275L21.6301 80.623L18.8269 82.0186L17.6427 85.3223L16.4585 82.0186L13.6553 80.623L16.4585 79.2275L17.6427 75.9238Z" fill="#5C5C5C"/>
<path d="M30.9005 170.57L32.0847 173.874L34.8879 175.27L32.0847 176.665L30.9005 179.969L29.7163 176.665L26.9131 175.27L29.7163 173.874L30.9005 170.57Z" fill="#5C5C5C"/>
<path d="M154.201 76.7168L155.385 80.0204L158.189 81.416L155.385 82.8116L154.201 86.1152L153.017 82.8116L150.214 81.416L153.017 80.0204L154.201 76.7168Z" fill="#5C5C5C"/>
</g>
<path d="M150 1H20C9.50659 1 1 9.50659 1 20V182C1 192.493 9.50659 201 20 201H150C160.493 201 169 192.493 169 182V20C169 9.50659 160.493 1 150 1Z" stroke="#B4B4B4" stroke-width="2"/>
</g>
<defs>
<clipPath id="clip0_2374_6583">
<rect width="170" height="202" fill="white"/>
</clipPath>
</defs>
</svg>
