<svg width="274" height="93" viewBox="0 0 274 93" fill="none" xmlns="http://www.w3.org/2000/svg">
<mask id="path-1-inside-1_735_3364" fill="white">
<path d="M273.804 78C273.804 86.2841 267.088 93 258.804 93L31.804 93C23.5197 93 16.804 86.2843 16.804 78V68.9237C16.804 67.8192 15.9086 66.9238 14.804 66.9237L2.00388 66.9231C0.16568 66.923 -0.698853 64.6517 0.674042 63.4294L16.1339 49.6649C16.5602 49.2854 16.804 48.7419 16.804 48.1712V15C16.8042 6.71594 23.5198 1.92821e-05 31.804 0L258.804 0C267.088 9.32793e-06 273.804 6.71575 273.804 15V78Z"/>
</mask>
<path d="M273.804 78L274.804 78V78H273.804ZM258.804 93V94H258.804L258.804 93ZM31.804 93V94V94V93ZM16.804 78H15.804V78H16.804ZM16.804 15L15.804 15V15H16.804ZM31.804 0V-1V-1V0ZM258.804 0L258.804 -1H258.804V0ZM273.804 15H274.804V15L273.804 15ZM16.1339 49.6649L15.4689 48.9181L16.1339 49.6649ZM2.00388 66.9231L2.00394 65.9231L2.00388 66.9231ZM0.674042 63.4294L1.33902 64.1762L0.674042 63.4294ZM14.804 66.9237L14.804 67.9237L14.804 66.9237ZM273.804 78L272.804 78C272.804 85.7318 266.536 92 258.804 92L258.804 93L258.804 94C267.64 94 274.804 86.8363 274.804 78L273.804 78ZM258.804 93V92L31.804 92V93V94L258.804 94V93ZM31.804 93V92C24.072 92 17.804 85.732 17.804 78H16.804H15.804C15.804 86.8365 22.9674 94 31.804 94V93ZM16.804 78H17.804V68.9237H16.804H15.804V78H16.804ZM14.804 66.9237L14.8041 65.9237L2.00394 65.9231L2.00388 66.9231L2.00385 67.9231L14.804 67.9237L14.804 66.9237ZM0.674042 63.4294L1.33902 64.1762L16.7989 50.4118L16.1339 49.6649L15.4689 48.9181L0.00906372 62.6825L0.674042 63.4294ZM16.804 48.1712H17.804V15H16.804H15.804V48.1712H16.804ZM16.804 15L17.804 15C17.8042 7.2682 24.0722 1.00002 31.804 1V0V-1C22.9675 -0.999979 15.8042 6.16367 15.804 15L16.804 15ZM31.804 0V1L258.804 1V0V-1L31.804 -1V0ZM258.804 0L258.804 1C266.536 1.00001 272.804 7.26803 272.804 15L273.804 15L274.804 15C274.804 6.16346 267.64 -0.99999 258.804 -1L258.804 0ZM273.804 15H272.804V78H273.804H274.804V15H273.804ZM16.1339 49.6649L16.7989 50.4118C17.4382 49.8426 17.804 49.0273 17.804 48.1712H16.804H15.804C15.804 48.4566 15.682 48.7283 15.4689 48.9181L16.1339 49.6649ZM2.00388 66.9231L2.00394 65.9231C1.08484 65.9231 0.652557 64.7874 1.33902 64.1762L0.674042 63.4294L0.00906372 62.6825C-2.05026 64.516 -0.753448 67.923 2.00385 67.9231L2.00388 66.9231ZM16.804 68.9237H17.804C17.804 67.2669 16.4609 65.9238 14.8041 65.9237L14.804 66.9237L14.804 67.9237C15.3563 67.9238 15.804 68.3715 15.804 68.9237H16.804Z" fill="#0B1B32" mask="url(#path-1-inside-1_735_3364)"/>
</svg>
