<svg width="511" height="82" viewBox="0 0 511 82" fill="none" xmlns="http://www.w3.org/2000/svg">
<mask id="path-1-inside-1_19_4193" fill="white">
<path d="M510.649 69.9043C510.707 76.5734 505.316 82.0097 498.646 82.0078L25.2305 81.8613C19.1931 81.8595 14.1916 77.3971 13.3571 71.5803C13.2242 70.6539 12.585 69.8454 11.6698 69.6498L1.58356 67.4943C0.0285339 67.1619 -0.535553 65.2355 0.594666 64.1169L12.4768 52.3569C12.8606 51.977 13.0745 51.4581 13.0699 50.9181L12.7344 12.1035C12.6767 5.43447 18.0681 -0.00185997 24.7373 0L498.153 0.146484C504.739 0.148527 510.092 5.45773 510.149 12.043L510.649 69.9043Z"/>
</mask>
<path d="M510.649 69.9043L509.649 69.9129H509.649L510.649 69.9043ZM498.646 82.0078L498.646 83.0078H498.646L498.646 82.0078ZM25.2305 81.8613L25.2302 82.8613V82.8613L25.2305 81.8613ZM12.7344 12.1035L13.7343 12.0949V12.0949L12.7344 12.1035ZM24.7373 0L24.7376 -1H24.7376L24.7373 0ZM498.153 0.146484L498.154 -0.853516H498.154L498.153 0.146484ZM510.149 12.043L511.149 12.0343L511.149 12.0343L510.149 12.043ZM12.4768 52.3569L13.1803 53.0676L12.4768 52.3569ZM13.0699 50.9181L14.0698 50.9094L13.0699 50.9181ZM1.58356 67.4943L1.79257 66.5163L1.58356 67.4943ZM0.594666 64.1169L-0.108795 63.4062L0.594666 64.1169ZM13.3571 71.5803L14.3469 71.4382L13.3571 71.5803ZM11.6698 69.6498L11.4608 70.6277L11.6698 69.6498ZM510.649 69.9043L509.649 69.9129C509.702 76.0262 504.76 81.0096 498.647 81.0078L498.646 82.0078L498.646 83.0078C505.871 83.0099 511.712 77.1205 511.649 69.8957L510.649 69.9043ZM498.646 82.0078L498.647 81.0078L25.2308 80.8613L25.2305 81.8613L25.2302 82.8613L498.646 83.0078L498.646 82.0078ZM25.2305 81.8613L25.2308 80.8613C19.6973 80.8596 15.1118 76.7695 14.3469 71.4382L13.3571 71.5803L12.3672 71.7223C13.2714 78.0248 18.6888 82.8593 25.2302 82.8613L25.2305 81.8613ZM11.6698 69.6498L11.8788 68.6719L1.79257 66.5163L1.58356 67.4943L1.37457 68.4722L11.4608 70.6277L11.6698 69.6498ZM0.594666 64.1169L1.2981 64.8277L13.1803 53.0676L12.4768 52.3569L11.7734 51.6461L-0.108795 63.4062L0.594666 64.1169ZM13.0699 50.9181L14.0698 50.9094L13.7343 12.0949L12.7344 12.1035L11.7344 12.1122L12.0699 50.9267L13.0699 50.9181ZM12.7344 12.1035L13.7343 12.0949C13.6815 5.98161 18.6235 0.998295 24.737 1L24.7373 0L24.7376 -1C17.5126 -1.00201 11.672 4.88733 11.7344 12.1122L12.7344 12.1035ZM24.7373 0L24.737 1L498.153 1.14648L498.153 0.146484L498.154 -0.853516L24.7376 -1L24.7373 0ZM498.153 0.146484L498.153 1.14648C504.19 1.14836 509.097 6.01515 509.149 12.0516L510.149 12.043L511.149 12.0343C511.088 4.90031 505.288 -0.851303 498.154 -0.853516L498.153 0.146484ZM510.149 12.043L509.149 12.0516L509.649 69.9129L510.649 69.9043L511.649 69.8957L511.149 12.0343L510.149 12.043ZM12.4768 52.3569L13.1803 53.0676C13.756 52.4978 14.0768 51.7194 14.0698 50.9094L13.0699 50.9181L12.0699 50.9267C12.0722 51.1967 11.9653 51.4562 11.7734 51.6461L12.4768 52.3569ZM1.58356 67.4943L1.79257 66.5163C1.01505 66.3502 0.733002 65.387 1.2981 64.8277L0.594666 64.1169L-0.108795 63.4062C-1.80408 65.0841 -0.958008 67.9737 1.37457 68.4722L1.58356 67.4943ZM13.3571 71.5803L14.3469 71.4382C14.1658 70.1757 13.2762 68.9705 11.8788 68.6719L11.6698 69.6498L11.4608 70.6277C11.8938 70.7202 12.2825 71.1321 12.3672 71.7223L13.3571 71.5803Z" fill="#0B1B32" mask="url(#path-1-inside-1_19_4193)"/>
</svg>
