<svg width="558" height="103" viewBox="0 0 558 103" fill="none" xmlns="http://www.w3.org/2000/svg">
<mask id="path-1-inside-1_763_3217" fill="white">
<path fill-rule="evenodd" clip-rule="evenodd" d="M557.326 88C557.326 96.284 550.611 103 542.326 103L33.3264 103C25.0424 103 18.3264 96.2841 18.3264 88V76.2031C18.3264 75.0986 17.431 74.2031 16.3264 74.2031H2.00348C-0.032959 74.2031 -0.766602 71.5149 0.987488 70.4804L17.3424 60.8352C17.9521 60.4756 18.3264 59.8204 18.3264 59.1125V15C18.3267 6.7161 25.0425 0.000245884 33.3264 0L542.326 0C550.611 -7.7039e-06 557.326 6.71573 557.326 15V88Z"/>
</mask>
<path d="M557.326 88L558.326 88V88H557.326ZM542.326 103V104H542.326L542.326 103ZM33.3264 103V104V104V103ZM18.3264 88H17.3264V88H18.3264ZM18.3264 15L17.3264 15V15H18.3264ZM33.3264 0V-1V-1V0ZM542.326 0V1H542.326L542.326 0ZM557.326 15H558.326V15L557.326 15ZM17.3424 60.8352L17.8503 61.6966L17.3424 60.8352ZM0.987488 70.4804L0.479492 69.619L0.987488 70.4804ZM557.326 88L556.326 88C556.326 95.7318 550.058 102 542.326 102L542.326 103L542.326 104C551.163 104 558.326 96.8363 558.326 88L557.326 88ZM542.326 103V102L33.3264 102V103V104L542.326 104V103ZM33.3264 103V102C25.5946 102 19.3264 95.7318 19.3264 88H18.3264H17.3264C17.3264 96.8364 24.4901 104 33.3264 104V103ZM18.3264 88H19.3264V76.2031H18.3264H17.3264V88H18.3264ZM16.3264 74.2031V73.2031H2.00348V74.2031V75.2031H16.3264V74.2031ZM0.987488 70.4804L1.49548 71.3418L17.8503 61.6966L17.3424 60.8352L16.8344 59.9738L0.479492 69.619L0.987488 70.4804ZM18.3264 59.1125H19.3264V15H18.3264H17.3264V59.1125H18.3264ZM18.3264 15L19.3264 15C19.3267 7.26839 25.5948 1.00023 33.3264 1V0V-1C24.4902 -0.999738 17.3267 6.16381 17.3264 15L18.3264 15ZM33.3264 0V1L542.326 1V0V-1L33.3264 -1V0ZM542.326 0L542.326 1C550.058 0.999993 556.326 7.26801 556.326 15L557.326 15L558.326 15C558.326 6.16345 551.163 -1.00001 542.326 -1L542.326 0ZM557.326 15H556.326V88H557.326H558.326V15H557.326ZM17.3424 60.8352L17.8503 61.6966C18.7651 61.1571 19.3264 60.1744 19.3264 59.1125H18.3264H17.3264C17.3264 59.4664 17.1393 59.794 16.8344 59.9738L17.3424 60.8352ZM2.00348 74.2031V73.2031C0.985291 73.2031 0.618408 71.859 1.49548 71.3418L0.987488 70.4804L0.479492 69.619C-2.15167 71.1707 -1.05115 75.2031 2.00348 75.2031V74.2031ZM18.3264 76.2031H19.3264C19.3264 74.5463 17.9833 73.2031 16.3264 73.2031V74.2031V75.2031C16.8787 75.2031 17.3264 75.6508 17.3264 76.2031H18.3264Z" fill="#0B1B32" mask="url(#path-1-inside-1_763_3217)"/>
</svg>
