<svg width="368" height="86" viewBox="0 0 368 86" fill="none" xmlns="http://www.w3.org/2000/svg">
<mask id="path-1-inside-1_21_186" fill="white">
<path d="M368.001 70.999C368.001 79.2833 361.285 85.999 353.001 85.999L31.6328 85.999C23.3485 85.999 16.6328 79.2833 16.6328 70.999V52.3193C16.6328 51.2148 15.7374 50.3193 14.6328 50.3193H2.00378C0.165344 50.3193 -0.699188 48.0475 0.674194 46.8253L15.9624 33.2197C16.3889 32.8401 16.6328 32.2965 16.6328 31.7256V15C16.6328 6.71574 23.3485 9.85918e-06 31.6328 0L353.001 0C361.285 1.28191e-05 368.001 6.71573 368.001 15V70.999Z"/>
</mask>
<path d="M368.001 70.999H369.001V70.999H368.001ZM353.001 85.999V86.999H353.001L353.001 85.999ZM31.6328 85.999V84.999V84.999V85.999ZM31.6328 0V-1V-1V0ZM353.001 0L353.001 -1H353.001V0ZM368.001 15L367.001 15V15H368.001ZM15.9624 33.2197L15.2976 32.4726L15.9624 33.2197ZM0.674194 46.8253L1.33899 47.5723L0.674194 46.8253ZM368.001 70.999H367.001C367.001 78.731 360.733 84.999 353.001 84.999L353.001 85.999L353.001 86.999C361.837 86.999 369.001 79.8355 369.001 70.999H368.001ZM353.001 85.999V84.999L31.6328 84.999V85.999V86.999L353.001 86.999V85.999ZM31.6328 85.999V84.999C23.9008 84.999 17.6328 78.731 17.6328 70.999H16.6328H15.6328C15.6328 79.8356 22.7963 86.999 31.6328 86.999V85.999ZM16.6328 70.999H17.6328V52.3193H16.6328H15.6328V70.999H16.6328ZM14.6328 50.3193V49.3193H2.00378V50.3193V51.3193H14.6328V50.3193ZM0.674194 46.8253L1.33899 47.5723L16.6272 33.9667L15.9624 33.2197L15.2976 32.4726L0.0093689 46.0783L0.674194 46.8253ZM16.6328 31.7256H17.6328V15H16.6328H15.6328V31.7256H16.6328ZM16.6328 15H17.6328C17.6328 7.26803 23.9008 1.00001 31.6328 1V0V-1C22.7963 -0.99999 15.6328 6.16346 15.6328 15H16.6328ZM31.6328 0V1L353.001 1V0V-1L31.6328 -1V0ZM353.001 0L353.001 1C360.733 1.00001 367.001 7.26802 367.001 15L368.001 15L369.001 15C369.001 6.16344 361.838 -0.999986 353.001 -1L353.001 0ZM368.001 15H367.001V70.999H368.001H369.001V15H368.001ZM15.9624 33.2197L16.6272 33.9667C17.2669 33.3974 17.6328 32.5819 17.6328 31.7256H16.6328H15.6328C15.6328 32.0111 15.5108 32.2829 15.2976 32.4726L15.9624 33.2197ZM2.00378 50.3193V49.3193C1.08456 49.3193 0.652313 48.1834 1.33899 47.5723L0.674194 46.8253L0.0093689 46.0783C-2.05066 47.9116 -0.753876 51.3193 2.00378 51.3193V50.3193ZM16.6328 52.3193H17.6328C17.6328 50.6625 16.2897 49.3193 14.6328 49.3193V50.3193V51.3193C15.1851 51.3193 15.6328 51.7671 15.6328 52.3193H16.6328Z" fill="#0B1B32" mask="url(#path-1-inside-1_21_186)"/>
</svg>
