<svg width="430" height="149" viewBox="0 0 430 149" fill="none" xmlns="http://www.w3.org/2000/svg">
<mask id="path-1-inside-1_21_109" fill="white">
<path d="M415 0C423.284 -6.00211e-06 430 6.71573 430 15V124C430 132.284 423.284 139 415 139H226.621C226.068 139 225.539 139.229 225.161 139.633L216.987 148.369C216.196 149.214 214.856 149.214 214.066 148.369L205.892 139.633C205.513 139.229 204.985 139 204.431 139H15C6.71574 139 2.1133e-05 132.284 0 124V15C0 6.71573 6.71573 6.00211e-06 15 0H415Z"/>
</mask>
<path d="M415 0V1V1V0ZM430 124L431 124V124H430ZM415 139V140V140V139ZM15 139V138H15L15 139ZM0 124H-1V124H0ZM15 0V-1H15L15 0ZM205.892 139.633L205.161 140.317L205.892 139.633ZM216.987 148.369L217.717 149.052L216.987 148.369ZM214.066 148.369L213.336 149.052L214.066 148.369ZM225.161 139.633L225.891 140.317L225.161 139.633ZM415 0V1C422.732 0.999994 429 7.26801 429 15H430H431C431 6.16344 423.837 -1.00001 415 -1V0ZM430 15H429V124H430H431V15H430ZM430 124L429 124C429 131.732 422.732 138 415 138V139V140C423.836 140 431 132.836 431 124L430 124ZM415 139V138H226.621V139V140H415V139ZM225.161 139.633L224.431 138.95L216.257 147.686L216.987 148.369L217.717 149.052L225.891 140.317L225.161 139.633ZM214.066 148.369L214.796 147.686L206.622 138.95L205.892 139.633L205.161 140.317L213.336 149.052L214.066 148.369ZM204.431 139V138H15V139V140H204.431V139ZM15 139L15 138C7.26803 138 1.00002 131.732 1 124H0H-1C-0.999977 132.837 6.16345 140 15 140L15 139ZM0 124H1V15H0H-1V124H0ZM0 15H1C1 7.26802 7.26802 1.00001 15 1L15 0L15 -1C6.16345 -0.999994 -1 6.16345 -1 15H0ZM15 0V1H415V0V-1H15V0ZM205.892 139.633L206.622 138.95C206.055 138.344 205.261 138 204.431 138V139V140C204.708 140 204.972 140.115 205.161 140.317L205.892 139.633ZM216.987 148.369L216.257 147.686C215.861 148.108 215.191 148.108 214.796 147.686L214.066 148.369L213.336 149.052C214.521 150.319 216.531 150.319 217.717 149.052L216.987 148.369ZM226.621 139V138C225.791 138 224.998 138.344 224.431 138.95L225.161 139.633L225.891 140.317C226.08 140.115 226.345 140 226.621 140V139Z" fill="#0B1B32" mask="url(#path-1-inside-1_21_109)"/>
</svg>
