<svg width="430" height="108" viewBox="0 0 430 108" fill="none" xmlns="http://www.w3.org/2000/svg">
<mask id="path-1-inside-1_21_403" fill="white">
<path d="M415 0C423.284 -3.66149e-07 430 6.71573 430 15V83C430 91.2842 423.284 98 415 98H225.621C225.068 98 224.539 98.2293 224.161 98.6335L215.987 107.369C215.196 108.214 213.856 108.214 213.066 107.369L204.892 98.6335C204.513 98.2293 203.985 98 203.431 98H15C6.71573 98 4.22755e-06 91.2843 0 83V15C0.00011558 6.71583 6.7158 4.23166e-06 15 0H415Z"/>
</mask>
<path d="M415 0V1V1V0ZM430 15H431V15H430ZM430 83L431 83V83H430ZM415 98V99V99V98ZM15 98V97V97V98ZM0 83H-1V83H0ZM0 15L-1 15V15H0ZM15 0V-1H15L15 0ZM204.892 98.6335L204.161 99.3167L204.892 98.6335ZM215.987 107.369L216.717 108.052L215.987 107.369ZM213.066 107.369L212.336 108.052L213.066 107.369ZM224.161 98.6335L224.891 99.3167L224.161 98.6335ZM415 0V1C422.732 1 429 7.26802 429 15H430H431C431 6.16345 423.837 -1 415 -1V0ZM430 15H429V83H430H431V15H430ZM430 83L429 83C429 90.7319 422.732 97 415 97V98V99C423.836 99 431 91.8364 431 83L430 83ZM415 98V97H225.621V98V99H415V98ZM224.161 98.6335L223.431 97.9502L215.257 106.686L215.987 107.369L216.717 108.052L224.891 99.3167L224.161 98.6335ZM213.066 107.369L213.796 106.686L205.622 97.9502L204.892 98.6335L204.161 99.3167L212.336 108.052L213.066 107.369ZM203.431 98V97H15V98V99H203.431V98ZM15 98V97C7.26802 97 1 90.732 1 83H0H-1C-0.999995 91.8366 6.16345 99 15 99V98ZM0 83H1V15H0H-1V83H0ZM0 15L1 15C1.00011 7.2681 7.2681 1 15 1L15 0L15 -1C6.1635 -0.999995 -0.999877 6.16356 -1 15L0 15ZM15 0V1H415V0V-1H15V0ZM204.892 98.6335L205.622 97.9502C205.055 97.344 204.261 97 203.431 97V98V99C203.708 99 203.972 99.1147 204.161 99.3167L204.892 98.6335ZM215.987 107.369L215.257 106.686C214.861 107.108 214.191 107.108 213.796 106.686L213.066 107.369L212.336 108.052C213.521 109.319 215.531 109.319 216.717 108.052L215.987 107.369ZM225.621 98V97C224.791 97 223.998 97.344 223.431 97.9502L224.161 98.6335L224.891 99.3167C225.08 99.1147 225.345 99 225.621 99V98Z" fill="#0B1B32" mask="url(#path-1-inside-1_21_403)"/>
</svg>
