<svg width="44" height="43" viewBox="0 0 44 43" fill="none" xmlns="http://www.w3.org/2000/svg">
<path d="M21.8328 0C8.40701 0 0 8.48255 0 18.6808C0 32.7223 13.2027 42.3338 21.8328 42.3338C30.463 42.3338 43.6622 33.34 43.6622 18.6808C43.6622 8.47912 35.2621 0 21.8328 0Z" fill="#557597"/>
<path d="M8.30816 27.9049C5.38681 25.7122 4.57667 20.9562 6.37547 18.8802C8.18457 16.8007 12.6095 17.1782 15.2974 19.6488C18.5655 22.6582 18.8092 27.4279 17.6626 28.7456C16.5229 30.0633 11.5522 30.3378 8.30816 27.9049Z" fill="#213A55"/>
<path d="M21.8331 37.1135C19.4644 37.1135 15.8359 36.4204 15.8359 35.4115C15.8359 34.6772 18.1428 34.0664 21.8331 34.0664C25.52 34.0664 27.8268 34.6772 27.8268 35.4115C27.8303 36.465 24.2052 37.1135 21.8331 37.1135Z" fill="#213A55"/>
<path d="M35.2626 27.9049C32.0186 30.3344 27.0444 30.0599 25.9047 28.7456C24.7616 27.4279 25.0019 22.6582 28.2734 19.6488C30.9613 17.1782 35.3896 16.8007 37.1919 18.8802C38.9907 20.9597 38.184 25.7122 35.2626 27.9049Z" fill="#213A55"/>
</svg>
