<svg width="45" height="47" viewBox="0 0 45 47" fill="none" xmlns="http://www.w3.org/2000/svg">
<path d="M4.7207 23.3763C4.7207 28.2479 6.54475 32.92 9.79156 36.3648C13.0384 39.8095 17.442 41.7448 22.0337 41.7448C26.6254 41.7448 31.029 39.8095 34.2758 36.3648C37.5227 32.92 39.3467 28.2479 39.3467 23.3763C39.3467 18.5047 37.5227 13.8326 34.2758 10.3878C31.029 6.94306 26.6254 5.00781 22.0337 5.00781C17.442 5.00781 13.0384 6.94306 9.79156 10.3878C6.54475 13.8326 4.7207 18.5047 4.7207 23.3763Z" fill="#557597"/>
<path fill-rule="evenodd" clip-rule="evenodd" d="M31.5638 8.03936C31.9625 7.78555 32.3507 7.54731 32.7285 7.32466C34.8249 6.08897 36.5436 5.37427 37.8028 5.11377C38.7849 4.91338 39.1689 5.04363 39.2696 5.08705C39.3106 5.19392 39.4333 5.60137 39.2445 6.64336C38.9989 7.97925 38.3253 9.80274 37.1606 12.0237C34.8501 16.4388 30.8776 21.9126 25.7655 27.3363C20.6534 32.76 15.4942 36.9747 11.3328 39.4261C9.23946 40.6618 7.52075 41.3765 6.26162 41.637C5.2795 41.8374 4.89547 41.7071 4.79474 41.6637C4.75382 41.5568 4.63105 41.1494 4.81992 40.1074C5.06545 38.7715 5.73908 36.948 6.90378 34.7271C7.11363 34.3219 7.33818 33.91 7.57741 33.4914C6.53576 31.8177 5.75952 29.9742 5.2795 28.0343C4.32571 29.5071 3.48525 30.9365 2.77384 32.2924C1.49268 34.7405 0.564071 37.0883 0.186333 39.1556C-0.172518 41.1193 -0.14104 43.5206 1.45176 45.2105C3.04455 46.9004 5.30783 46.9338 7.15875 46.5531C9.10725 46.1523 11.3202 45.1671 13.6275 43.8078C18.2674 41.0692 23.7729 36.5372 29.1053 30.8797C34.4377 25.2222 38.7125 19.3811 41.2874 14.4583C42.5717 12.0103 43.5003 9.66247 43.878 7.59518C44.2369 5.63142 44.2054 3.23016 42.6126 1.54026C41.0198 -0.149638 38.7565 -0.183036 36.9056 0.197693C34.9571 0.59846 32.7442 1.58368 30.4369 2.94295C29.1589 3.69772 27.8116 4.58943 26.4234 5.60137C28.2508 6.11099 29.9872 6.93455 31.5638 8.03936Z" fill="#26415E"/>
</svg>
