<svg width="36" height="44" viewBox="0 0 36 44" fill="none" xmlns="http://www.w3.org/2000/svg">
<path fill-rule="evenodd" clip-rule="evenodd" d="M32.3534 33.1133V38.5035H7.31729C6.60221 38.5035 5.91643 38.2196 5.41079 37.7141C4.90516 37.2087 4.62109 36.5232 4.62109 35.8084C4.62109 35.0936 4.90516 34.4081 5.41079 33.9027C5.91643 33.3972 6.60221 33.1133 7.31729 33.1133H32.3534Z" fill="#26415E"/>
<path fill-rule="evenodd" clip-rule="evenodd" d="M0 6.93028V35.8065C0 37.7466 0.771027 39.6073 2.14346 40.9791C3.5159 42.351 5.37732 43.1217 7.31824 43.1217H33.1247C33.7376 43.1217 34.3254 42.8784 34.7588 42.4451C35.1922 42.0119 35.4357 41.4243 35.4357 40.8117C35.4357 40.199 35.1922 39.6114 34.7588 39.1782C34.3254 38.7449 33.7376 38.5016 33.1247 38.5016H7.31824C6.60317 38.5016 5.91738 38.2176 5.41174 37.7122C4.90611 37.2068 4.62205 36.5212 4.62205 35.8065C4.62205 35.0917 4.90611 34.4062 5.41174 33.9007C5.91738 33.3953 6.60317 33.1113 7.31824 33.1113H33.1247C33.7376 33.1113 34.3254 32.868 34.7588 32.4347C35.1922 32.0015 35.4357 31.4139 35.4357 30.8013V6.93028C35.4357 5.09226 34.7052 3.32951 33.405 2.02983C32.1048 0.730152 30.3414 0 28.5026 0L6.93307 0C5.09431 0 3.33085 0.730152 2.03065 2.02983C0.730446 3.32951 0 5.09226 0 6.93028Z" fill="#26415E"/>
<path fill-rule="evenodd" clip-rule="evenodd" d="M0 6.93028V35.8065C0 37.7466 0.771027 39.6073 2.14346 40.9791C3.5159 42.351 5.37732 43.1217 7.31824 43.1217H33.1247C33.7376 43.1217 34.3254 42.8784 34.7588 42.4451C35.1922 42.0119 35.4357 41.4243 35.4357 40.8117C35.4357 40.199 35.1922 39.6114 34.7588 39.1782C34.3254 38.7449 33.7376 38.5016 33.1247 38.5016H7.31824C6.60317 38.5016 5.91738 38.2176 5.41174 37.7122C4.90611 37.2068 4.62205 36.5212 4.62205 35.8065C4.62205 35.0917 4.90611 34.4062 5.41174 33.9007C5.91738 33.3953 6.60317 33.1113 7.31824 33.1113H33.1247C33.7376 33.1113 34.3254 32.868 34.7588 32.4347C35.1922 32.0015 35.4357 31.4139 35.4357 30.8013V6.93028C35.4357 5.09226 34.7052 3.32951 33.405 2.02983C32.1048 0.730152 30.3414 0 28.5026 0L6.93307 0C5.09431 0 3.33085 0.730152 2.03065 2.02983C0.730446 3.32951 0 5.09226 0 6.93028Z" fill="#557597"/>
<path fill-rule="evenodd" clip-rule="evenodd" d="M14.0641 8.10018C13.8786 7.54857 13.5246 7.06911 13.0519 6.72943C12.5792 6.38976 12.0117 6.20703 11.4295 6.20703C10.8474 6.20703 10.2799 6.38976 9.8072 6.72943C9.3345 7.06911 8.98044 7.54857 8.79497 8.10018L6.70888 14.3498L6.68423 14.4175L5.50715 17.9473C5.44301 18.1393 5.41732 18.3419 5.43154 18.5438C5.44577 18.7457 5.49962 18.9427 5.59004 19.1238C5.68046 19.3048 5.80567 19.4663 5.95851 19.599C6.11136 19.7317 6.28885 19.8329 6.48086 19.8971C6.86863 20.0265 7.29198 19.9967 7.65777 19.8142C7.8389 19.7238 8.00043 19.5987 8.13317 19.4459C8.2659 19.2931 8.36723 19.1157 8.43136 18.9237L9.2695 16.4104H13.5865L14.4246 18.9237C14.4888 19.1157 14.5901 19.2931 14.7228 19.4459C14.8555 19.5987 15.0171 19.7238 15.1982 19.8142C15.3793 19.9046 15.5765 19.9584 15.7784 19.9726C15.9804 19.9869 16.1831 19.9612 16.3751 19.8971C16.5671 19.8329 16.7446 19.7317 16.8975 19.599C17.0503 19.4663 17.1755 19.3048 17.2659 19.1238C17.3564 18.9427 17.4102 18.7457 17.4244 18.5438C17.4387 18.3419 17.413 18.1393 17.3488 17.9473L16.1718 14.4175L16.1471 14.3498L14.0641 8.10018ZM10.2925 13.3272L11.4265 9.93286L12.5573 13.3272H10.2925ZM28.0874 13.8631C28.3699 13.8631 28.6471 13.9408 28.8884 14.0876C29.1298 14.2345 29.3261 14.4449 29.4559 14.6958C29.5857 14.9466 29.6439 15.2284 29.6243 15.5101C29.6047 15.7919 29.5079 16.0628 29.3446 16.2933L23.49 24.5604H28.5342C28.9428 24.5604 29.3347 24.7226 29.6236 25.0114C29.9125 25.3003 30.0749 25.692 30.0749 26.1004C30.0749 26.5089 29.9125 26.9006 29.6236 27.1894C29.3347 27.4782 28.9428 27.6405 28.5342 27.6405H20.5134C20.2303 27.6409 19.9526 27.5633 19.7108 27.4163C19.4689 27.2693 19.2723 27.0585 19.1424 26.8071C19.0125 26.5557 18.9544 26.2734 18.9745 25.9912C18.9945 25.7089 19.092 25.4377 19.2562 25.2072L25.1108 16.9432H20.9602C20.5516 16.9432 20.1597 16.781 19.8708 16.4921C19.5818 16.2033 19.4195 15.8116 19.4195 15.4032C19.4195 14.9947 19.5818 14.603 19.8708 14.3142C20.1597 14.0254 20.5516 13.8631 20.9602 13.8631H28.0874Z" fill="#26415E"/>
</svg>
