<svg width="44" height="43" viewBox="0 0 44 43" fill="none" xmlns="http://www.w3.org/2000/svg">
<path fill-rule="evenodd" clip-rule="evenodd" d="M17.666 31.5876C17.7745 31.2835 17.9743 31.0203 18.238 30.8341C18.5017 30.6478 18.8165 30.5475 19.1394 30.5469H24.7508C25.0736 30.5475 25.3885 30.6478 25.6522 30.8341C25.9159 31.0203 26.1157 31.2835 26.2241 31.5876L28.3778 37.6003H31.3496C31.9732 37.6003 32.5712 37.848 33.0121 38.2889C33.453 38.7298 33.7007 39.3278 33.7007 39.9514C33.7007 40.5749 33.453 41.173 33.0121 41.6139C32.5712 42.0548 31.9732 42.3025 31.3496 42.3025H12.5406C11.917 42.3025 11.319 42.0548 10.8781 41.6139C10.4372 41.173 10.1895 40.5749 10.1895 39.9514C10.1895 39.3278 10.4372 38.7298 10.8781 38.2889C11.319 37.848 11.917 37.6003 12.5406 37.6003H15.5124L17.666 31.5876Z" fill="#213A55"/>
<path fill-rule="evenodd" clip-rule="evenodd" d="M4.56746 0C2.04391 0 0 2.04391 0 4.56746V28.3483C0 30.8719 2.04391 32.9158 4.56746 32.9158H39.3202C41.8438 32.9158 43.8877 30.8719 43.8877 28.3483V4.56746C43.8877 2.04391 41.8438 0 39.3202 0H4.56746Z" fill="#557597"/>
<path fill-rule="evenodd" clip-rule="evenodd" d="M18.8577 10.981C18.8693 11.3034 18.8159 11.6249 18.7006 11.9262C18.5852 12.2275 18.4103 12.5025 18.1863 12.7347C17.9624 12.967 17.6939 13.1517 17.3969 13.2778C17.1 13.404 16.7806 13.469 16.458 13.469C16.1353 13.469 15.816 13.404 15.519 13.2778C15.2221 13.1517 14.9536 12.967 14.7296 12.7347C14.5056 12.5025 14.3307 12.2275 14.2154 11.9262C14.1 11.6249 14.0466 11.3034 14.0583 10.981C14.0897 10.3662 14.3561 9.78689 14.8024 9.36285C15.2487 8.9388 15.8408 8.70235 16.4564 8.70235C17.072 8.70235 17.6641 8.9388 18.1104 9.36285C18.5567 9.78689 18.8262 10.3662 18.8577 10.981ZM12.9109 18.4262C13.0945 18.2459 13.3118 18.1034 13.5504 18.0071C13.7891 17.9107 14.0444 17.8623 14.3017 17.8647C14.559 17.867 14.8134 17.92 15.0503 18.0207C15.2871 18.1213 15.5018 18.2676 15.6821 18.4513C16.8044 19.5924 18.9361 20.7742 21.9424 20.7742C24.9487 20.7742 27.0835 19.5924 28.2058 18.4513C28.5753 18.1075 29.0632 17.9196 29.5679 17.9267C30.0725 17.9338 30.555 18.1354 30.9147 18.4894C31.2744 18.8435 31.4836 19.3227 31.4987 19.8271C31.5138 20.3316 31.3337 20.8225 30.9958 21.1974C29.1368 23.094 25.9957 24.6927 21.9424 24.6927C17.889 24.6927 14.7511 23.094 12.8858 21.1974C12.7055 21.0138 12.5631 20.7965 12.4667 20.5579C12.3704 20.3192 12.322 20.064 12.3243 19.8066C12.3266 19.5493 12.3796 19.2949 12.4803 19.0581C12.5809 18.8212 12.7273 18.6065 12.9109 18.4262ZM27.4283 13.3791C27.7508 13.3908 28.0722 13.3373 28.3736 13.222C28.6749 13.1066 28.9499 12.9318 29.1821 12.7078C29.4143 12.4838 29.599 12.2153 29.7252 11.9183C29.8513 11.6214 29.9164 11.3021 29.9164 10.9794C29.9164 10.6568 29.8513 10.3374 29.7252 10.0405C29.599 9.74352 29.4143 9.47503 29.1821 9.25105C28.9499 9.02706 28.6749 8.85217 28.3736 8.73683C28.0722 8.62148 27.7508 8.56804 27.4283 8.57969C26.8069 8.60216 26.2184 8.86482 25.7867 9.3124C25.355 9.75998 25.1138 10.3576 25.1138 10.9794C25.1138 11.6012 25.355 12.1988 25.7867 12.6464C26.2184 13.094 26.8069 13.3567 27.4283 13.3791Z" fill="#213A55"/>
</svg>
