<svg width="44" height="44" viewBox="0 0 44 44" fill="none" xmlns="http://www.w3.org/2000/svg">
<path d="M29 44C25.5333 44 22.4753 42.9667 19.826 40.9C17.1767 38.8333 15.418 36.2 14.55 33C16.05 33.0667 17.5333 32.9167 19 32.55C20.4667 32.1833 21.8667 31.6667 23.2 31H31.4C31.4333 30.6333 31.4587 30.2753 31.476 29.926C31.4933 29.5767 31.5013 29.218 31.5 28.85C31.5 28.55 31.492 28.242 31.476 27.926C31.46 27.61 31.4347 27.3013 31.4 27H28.45C28.9833 26.4 29.4753 25.7667 29.926 25.1C30.3767 24.4333 30.7847 23.7333 31.15 23H38.2C37.5333 22 36.7333 21.1253 35.8 20.376C34.8667 19.6267 33.8167 19.0513 32.65 18.65C32.8167 17.9833 32.9253 17.3 32.976 16.6C33.0267 15.9 33.0347 15.2167 33 14.55C36.2 15.4167 38.8333 17.1753 40.9 19.826C42.9667 22.4767 44 25.5347 44 29C44 33.1667 42.542 36.7087 39.626 39.626C36.71 42.5433 33.168 44.0013 29 44ZM24.25 38.9C24.0167 38.2333 23.8087 37.5833 23.626 36.95C23.4433 36.3167 23.2847 35.6667 23.15 35H19.8C20.3667 35.8333 21.0247 36.5833 21.774 37.25C22.5233 37.9167 23.3487 38.4667 24.25 38.9ZM29 39.6C29.4 38.8667 29.742 38.1167 30.026 37.35C30.31 36.5833 30.5513 35.8 30.75 35H27.25C27.45 35.8 27.7 36.5833 28 37.35C28.3 38.1167 28.6333 38.8667 29 39.6ZM33.75 38.9C34.65 38.4667 35.4753 37.9167 36.226 37.25C36.9767 36.5833 37.6347 35.8333 38.2 35H34.85C34.6833 35.6667 34.5167 36.3167 34.35 36.95C34.1833 37.5833 33.9833 38.2333 33.75 38.9ZM35.4 31H39.8C39.8667 30.6667 39.9167 30.3413 39.95 30.024C39.9833 29.7067 40 29.3653 40 29C40 28.6347 39.9833 28.2927 39.95 27.974C39.9167 27.6553 39.8667 27.3307 39.8 27H35.4C35.4333 27.3 35.4587 27.6087 35.476 27.926C35.4933 28.2433 35.5013 28.5513 35.5 28.85C35.5 29.2167 35.492 29.5753 35.476 29.926C35.46 30.2767 35.4347 30.6347 35.4 31ZM15 30C10.8333 30 7.29133 28.542 4.374 25.626C1.45667 22.71 -0.00133242 19.168 9.13659e-07 15C0.00133425 10.832 1.46 7.29067 4.376 4.376C7.292 1.46134 10.8333 0.00267032 15 3.64963e-06C19.1667 -0.00266302 22.7087 1.456 25.626 4.376C28.5433 7.296 30.0013 10.8373 30 15C29.9987 19.1627 28.5407 22.7047 25.626 25.626C22.7113 28.5473 19.1693 30.0053 15 30ZM10 14C10.5667 14 11.042 13.808 11.426 13.424C11.81 13.04 12.0013 12.5653 12 12C11.9987 11.4347 11.8067 10.96 11.424 10.576C11.0413 10.192 10.5667 10 10 10C9.43333 10 8.95867 10.192 8.576 10.576C8.19333 10.96 8.00133 11.4347 8 12C7.99867 12.5653 8.19067 13.0407 8.576 13.426C8.96133 13.8113 9.436 14.0027 10 14ZM15 22.8C16.6 22.8 18.0253 22.35 19.276 21.45C20.5267 20.55 21.4347 19.4 22 18H8C8.56667 19.4 9.47533 20.55 10.726 21.45C11.9767 22.35 13.4013 22.8 15 22.8ZM20 14C20.5667 14 21.042 13.808 21.426 13.424C21.81 13.04 22.0013 12.5653 22 12C21.9987 11.4347 21.8067 10.96 21.424 10.576C21.0413 10.192 20.5667 10 20 10C19.4333 10 18.9587 10.192 18.576 10.576C18.1933 10.96 18.0013 11.4347 18 12C17.9987 12.5653 18.1907 13.0407 18.576 13.426C18.9613 13.8113 19.436 14.0027 20 14Z" fill="#557597"/>
</svg>
