<svg width="42" height="44" viewBox="0 0 42 44" fill="none" xmlns="http://www.w3.org/2000/svg">
<path fill-rule="evenodd" clip-rule="evenodd" d="M9.9111 23.4065H9.84306C7.00173 23.3709 3.00701 26.9041 1.58472 29.4431C0.155957 32.0016 -0.398054 35.2693 0.30175 39.3628C0.69701 41.6783 2.76402 43.1195 4.9088 43.1195H5.67988C8.47909 43.1195 10.1703 40.7553 10.9932 39.0519C11.2783 38.4625 12.6261 37.4585 13.5008 37.0245L13.6628 36.7978L13.5916 36.6553C12.3183 33.5626 10.6725 28.6659 9.9111 23.4065ZM27.9959 36.8011L28.1579 37.0245C29.0326 37.4585 30.3804 38.4625 30.6655 39.0519C31.4884 40.7553 33.1764 43.1195 35.9788 43.1195H36.7499C38.8914 43.1195 40.9617 41.6783 41.3569 39.3628C42.0567 35.2693 41.5027 32.0016 40.0707 29.4431C38.6517 26.9009 34.657 23.3709 31.8156 23.4065H31.7508C30.9862 28.6659 29.3404 33.5626 28.0639 36.6553L27.9959 36.8011Z" fill="#213A55"/>
<path fill-rule="evenodd" clip-rule="evenodd" d="M20.2465 0.108568C20.6218 -0.0361893 21.0376 -0.0361893 21.4129 0.108568C25.5113 1.68573 28.2489 4.31866 29.9272 7.5248C31.586 10.6921 32.1756 14.3387 32.1691 17.9367C32.1562 25.11 29.7749 32.5036 28.0643 36.6554C27.9423 36.9521 27.7349 37.206 27.4685 37.3847C27.202 37.5634 26.8884 37.659 26.5675 37.6593H15.092C14.7705 37.6597 14.4562 37.5644 14.1891 37.3856C13.9219 37.2068 13.7141 36.9526 13.5919 36.6554C11.8845 32.5036 9.50325 25.11 9.49029 17.9367C9.48381 14.3387 10.0735 10.6921 11.7323 7.5248C13.4137 4.31866 16.1481 1.68573 20.2465 0.108568Z" fill="#557597"/>
<path fill-rule="evenodd" clip-rule="evenodd" d="M10.3422 11.0703C9.97704 12.3948 9.73305 13.7498 9.61328 15.1185H32.0427C31.9229 13.7498 31.6789 12.3948 31.3137 11.0703H10.3422ZM23.2595 25.3069C23.2595 24.6627 23.0035 24.0449 22.5478 23.5894C22.0921 23.1339 21.474 22.878 20.8296 22.878C20.1851 22.878 19.5671 23.1339 19.1114 23.5894C18.6557 24.0449 18.3997 24.6627 18.3997 25.3069V41.4996C18.3997 42.1437 18.6557 42.7615 19.1114 43.217C19.5671 43.6726 20.1851 43.9285 20.8296 43.9285C21.474 43.9285 22.0921 43.6726 22.5478 43.217C23.0035 42.7615 23.2595 42.1437 23.2595 41.4996V25.3069Z" fill="#213A55"/>
</svg>
