<svg width="26" height="29" viewBox="0 0 26 29" fill="none" xmlns="http://www.w3.org/2000/svg">
<path d="M1.5 7.27778H24.5M10.125 13.0556V21.7222M15.875 13.0556V21.7222M2.9375 7.27778L4.375 24.6111C4.375 25.3773 4.6779 26.1121 5.21707 26.6539C5.75624 27.1956 6.4875 27.5 7.25 27.5H18.75C19.5125 27.5 20.2438 27.1956 20.7829 26.6539C21.3221 26.1121 21.625 25.3773 21.625 24.6111L23.0625 7.27778M8.6875 7.27778V2.94444C8.6875 2.56135 8.83895 2.19395 9.10853 1.92307C9.37812 1.65218 9.74375 1.5 10.125 1.5H15.875C16.2562 1.5 16.6219 1.65218 16.8915 1.92307C17.161 2.19395 17.3125 2.56135 17.3125 2.94444V7.27778" stroke="#26415E" stroke-width="3" stroke-linecap="round" stroke-linejoin="round"/>
</svg>
