<svg width="27" height="27" viewBox="0 0 27 27" fill="none" xmlns="http://www.w3.org/2000/svg">
<path fill-rule="evenodd" clip-rule="evenodd" d="M19.7271 12.0716C19.7271 13.5685 19.2972 14.9648 18.5552 16.1443L18.8791 16.4128C19.5887 17.0017 20.2883 17.5812 20.9779 18.2254C21.6598 18.8626 21.7446 19.826 21.0998 20.5003C20.9044 20.7045 20.7045 20.9044 20.5003 21.0998C19.826 21.7446 18.8626 21.6598 18.2254 20.9779C17.5812 20.2883 17.0017 19.5893 16.4128 18.8785L16.1443 18.5546C14.9249 19.3227 13.5127 19.7293 12.0716 19.7271C7.84335 19.7271 4.41602 16.2998 4.41602 12.0716C4.41602 7.84335 7.84335 4.41602 12.0716 4.41602C16.2998 4.41602 19.7271 7.84335 19.7271 12.0716Z" fill="#26415E"/>
<path fill-rule="evenodd" clip-rule="evenodd" d="M7.65623 12.0723C7.65623 11.4923 7.77047 10.918 7.99243 10.3821C8.21439 9.84627 8.53972 9.35938 8.94984 8.94925C9.35997 8.53913 9.84686 8.2138 10.3827 7.99184C10.9186 7.76988 11.4929 7.65564 12.0729 7.65564C12.6529 7.65564 13.2272 7.76988 13.7631 7.99184C14.2989 8.2138 14.7858 8.53913 15.1959 8.94925C15.6061 9.35938 15.9314 9.84627 16.1534 10.3821C16.3753 10.918 16.4896 11.4923 16.4896 12.0723C16.4896 13.2437 16.0242 14.3671 15.1959 15.1954C14.3677 16.0236 13.2443 16.489 12.0729 16.489C10.9015 16.489 9.77813 16.0236 8.94984 15.1954C8.12156 14.3671 7.65623 13.2437 7.65623 12.0723ZM7.31703 0.000683179C7.51029 -0.0051942 7.70281 0.0270508 7.88361 0.0955772C8.0644 0.164104 8.22993 0.267569 8.37074 0.400067C8.51155 0.532565 8.62488 0.6915 8.70427 0.867797C8.78366 1.04409 8.82754 1.2343 8.83342 1.42756C8.8393 1.62082 8.80705 1.81334 8.73852 1.99414C8.67 2.17493 8.56653 2.34046 8.43403 2.48127C8.30154 2.62208 8.1426 2.73541 7.9663 2.8148C7.79001 2.89418 7.5998 2.93807 7.40654 2.94395L3.69066 3.05701C3.5266 3.0685 3.37218 3.13879 3.25578 3.25497C3.13938 3.37116 3.0688 3.52544 3.05701 3.68948L2.94512 7.40595C2.93325 7.79625 2.76682 8.16585 2.48245 8.43345C2.19807 8.70104 1.81904 8.8447 1.42874 8.83283C1.03844 8.82096 0.668836 8.65453 0.401245 8.37015C0.133654 8.08577 -0.010009 7.70674 0.00186094 7.31644L0.116105 3.57288L0.117872 3.53048C0.169401 2.63438 0.551323 1.7892 1.18981 1.15833C1.82829 0.527459 2.67799 0.155704 3.57465 0.114928L7.31762 0.000683179H7.31703ZM23.5568 19.0942C23.5627 18.901 23.6066 18.7107 23.686 18.5344C23.7653 18.3582 23.8787 18.1992 24.0195 18.0667C24.1603 17.9342 24.3258 17.8308 24.5066 17.7622C24.6874 17.6937 24.8799 17.6615 25.0732 17.6673C25.2664 17.6732 25.4567 17.7171 25.633 17.7965C25.8092 17.8759 25.9682 17.9892 26.1007 18.13C26.2332 18.2708 26.3366 18.4363 26.4052 18.6171C26.4737 18.7979 26.5059 18.9905 26.5001 19.1837L26.3858 22.9273L26.3841 22.9697C26.3325 23.8658 25.9506 24.711 25.3121 25.3418C24.6736 25.9727 23.8239 26.3445 22.9273 26.3852L19.1843 26.4995C18.794 26.5113 18.415 26.3677 18.1306 26.1001C17.8462 25.8325 17.6798 25.4629 17.6679 25.0726C17.656 24.6823 17.7997 24.3033 18.0673 24.0189C18.3349 23.7345 18.7045 23.5681 19.0948 23.5562L22.8107 23.4431C22.9746 23.4315 23.1289 23.3612 23.2452 23.245C23.3615 23.1288 23.432 22.9746 23.4437 22.8107L23.5568 19.0942ZM1.42815 17.6667C1.62141 17.6609 1.81394 17.6931 1.99474 17.7616C2.17554 17.8301 2.34107 17.9336 2.48188 18.0661C2.6227 18.1986 2.73603 18.3575 2.81541 18.5338C2.89479 18.7101 2.93867 18.9004 2.94454 19.0936L3.0576 22.8101C3.06936 22.9739 3.13977 23.1281 3.25593 23.2442C3.37209 23.3604 3.52622 23.4308 3.69007 23.4426L7.40654 23.5556C7.79684 23.5675 8.16644 23.7339 8.43403 24.0183C8.70163 24.3027 8.84529 24.6817 8.83342 25.072C8.82155 25.4623 8.65512 25.8319 8.37074 26.0995C8.08636 26.3671 7.70733 26.5108 7.31703 26.4989L3.57406 26.3846L3.53166 26.3829C2.63545 26.3315 1.79013 25.9496 1.15914 25.3111C0.528144 24.6726 0.156305 23.8229 0.115516 22.9261L0.000683179 19.1843C-0.00520631 18.991 0.0270304 18.7985 0.0955524 18.6177C0.164074 18.4369 0.26754 18.2714 0.40004 18.1306C0.53254 17.9898 0.691479 17.8764 0.867782 17.797C1.04409 17.7177 1.2343 17.6738 1.42756 17.6679L1.42815 17.6667ZM17.6673 1.42756C17.6732 1.2343 17.7171 1.04409 17.7965 0.867782C17.8758 0.691479 17.9892 0.53254 18.13 0.40004C18.2708 0.26754 18.4363 0.164074 18.6171 0.0955524C18.7979 0.0270304 18.9905 -0.00520631 19.1837 0.000683179L22.9267 0.114928L22.9691 0.116694C23.8653 0.168083 24.7106 0.549943 25.3416 1.18844C25.9726 1.82694 26.3444 2.67672 26.3852 3.57347L26.4995 7.31644C26.5113 7.70674 26.3677 8.08577 26.1001 8.37015C25.8325 8.65453 25.4629 8.82096 25.0726 8.83283C24.8793 8.83871 24.6868 8.80646 24.506 8.73794C24.3252 8.66941 24.1597 8.56594 24.0189 8.43345C23.7345 8.16585 23.5681 7.79625 23.5562 7.40595L23.4431 3.68948C23.4314 3.52563 23.361 3.3715 23.2448 3.25534C23.1287 3.13918 22.9745 3.06877 22.8107 3.05701L19.0942 2.94395C18.9009 2.93808 18.7107 2.8942 18.5344 2.81482C18.3581 2.73544 18.1992 2.62211 18.0667 2.48129C17.9342 2.34048 17.8307 2.17495 17.7622 1.99415C17.6937 1.81335 17.6614 1.62082 17.6673 1.42756Z" fill="#83A6CE"/>
</svg>
