<svg width="18" height="18" viewBox="0 0 18 18" fill="none" xmlns="http://www.w3.org/2000/svg">
<path d="M11.2393 1.44824C11.9741 0.712933 12.8906 0.556002 13.5566 0.998047C14.0873 1.35054 14.728 1.853 15.4375 2.5625C16.1466 3.27162 16.6485 3.91192 17.001 4.44238C17.443 5.10858 17.2867 6.02574 16.5518 6.76074L6.53906 16.7744C6.33406 16.9794 6.10089 17.1077 5.86426 17.1543L5.7627 17.1689C5.0057 17.2418 3.54842 17.3133 1.26074 17.1533L1.18164 17.1406C1.10431 17.121 1.03269 17.0815 0.975586 17.0244C0.918477 16.9673 0.879022 16.8957 0.859375 16.8184L0.84668 16.7393L0.796875 15.9199C0.717575 14.3579 0.751981 13.2542 0.803711 12.5537L0.831055 12.2373C0.857459 11.9662 0.991351 11.6952 1.22559 11.4609L11.2393 1.44824Z" stroke="#587089" stroke-width="1.5"/>
<path d="M10.3662 1.6123C11.3153 2.22613 12.4434 3.09635 13.6738 4.32617C14.9024 5.55533 15.7724 6.683 16.3867 7.63184L14.6416 9.37695C14.124 8.50185 13.2927 7.34347 11.9746 6.02539C10.6557 4.70646 9.49646 3.8741 8.62109 3.35645L10.3662 1.6123Z" fill="#6D6D6D" stroke="#587089" stroke-width="0.5"/>
</svg>
