<svg width="21" height="22" viewBox="0 0 21 22" fill="none" xmlns="http://www.w3.org/2000/svg">
<path fill-rule="evenodd" clip-rule="evenodd" d="M12.4666 0.1672C12.0576 -4.91738e-08 11.5382 0 10.5003 0C9.46248 0 8.94411 -4.91738e-08 8.53406 0.1672C8.26425 0.27692 8.01891 0.43866 7.81215 0.643111C7.6054 0.847563 7.44131 1.09069 7.32932 1.3585C7.22543 1.6038 7.18564 1.8909 7.16906 2.3078C7.16117 2.60975 7.07629 2.90475 6.9224 3.16509C6.7685 3.42543 6.55064 3.64257 6.28928 3.7961C6.02262 3.94361 5.72288 4.02176 5.41781 4.0233C5.11274 4.02484 4.81221 3.94972 4.54407 3.8049C4.17049 3.6091 3.8997 3.5013 3.63223 3.4661C3.04709 3.39012 2.45542 3.54662 1.98539 3.9017C1.63392 4.1679 1.37419 4.6123 0.85582 5.5C0.336348 6.3877 0.0777169 6.831 0.0191381 7.2655C-0.05823 7.8441 0.100927 8.4293 0.461242 8.8924C0.62482 9.1036 0.85582 9.2807 1.21282 9.5029C1.74003 9.8296 2.07824 10.3862 2.07824 11C2.07824 11.6138 1.74003 12.1704 1.21392 12.496C0.85582 12.7193 0.62482 12.8964 0.460137 13.1076C0.282816 13.3366 0.152598 13.5982 0.0769274 13.8774C0.00125724 14.1565 -0.0183802 14.4478 0.0191381 14.7345C0.0777169 15.1679 0.336348 15.6123 0.85582 16.5C1.37529 17.3877 1.63392 17.831 1.98539 18.0983C2.45403 18.4536 3.04644 18.6098 3.63223 18.5339C3.8997 18.4987 4.17049 18.3909 4.54407 18.1951C4.81235 18.0501 5.11308 17.9749 5.41836 17.9764C5.72365 17.9779 6.0236 18.0562 6.29038 18.2039C6.82754 18.5119 7.14585 19.0784 7.16906 19.6922C7.18564 20.1102 7.22543 20.3962 7.32932 20.6415C7.5548 21.1805 7.98806 21.6095 8.53406 21.8328C8.943 22 9.46248 22 10.5003 22C11.5382 22 12.0576 22 12.4666 21.8328C12.7364 21.7231 12.9817 21.5613 13.1885 21.3569C13.3952 21.1524 13.5593 20.9093 13.6713 20.6415C13.7752 20.3962 13.815 20.1102 13.8316 19.6922C13.8537 19.0784 14.1731 18.5108 14.7114 18.2039C14.978 18.0564 15.2778 17.9782 15.5828 17.9767C15.8879 17.9752 16.1884 18.0503 16.4566 18.1951C16.8301 18.3909 17.1009 18.4987 17.3684 18.5339C17.9542 18.6109 18.5466 18.4536 19.0152 18.0983C19.3667 17.8321 19.6264 17.3877 20.1448 16.5C20.6643 15.6123 20.9229 15.169 20.9815 14.7345C21.0189 14.4477 20.999 14.1564 20.9232 13.8772C20.8473 13.5981 20.7169 13.3366 20.5394 13.1076C20.3758 12.8964 20.1448 12.7193 19.7878 12.4971C19.2606 12.1704 18.9224 11.6138 18.9224 11C18.9224 10.3862 19.2606 9.8296 19.7867 9.504C20.1448 9.2807 20.3758 9.1036 20.5405 8.8924C20.7178 8.66337 20.848 8.40179 20.9237 8.12264C20.9994 7.84348 21.019 7.55222 20.9815 7.2655C20.9229 6.8321 20.6643 6.3877 20.1448 5.5C19.6253 4.6123 19.3667 4.169 19.0152 3.9017C18.5452 3.54662 17.9535 3.39012 17.3684 3.4661C17.1009 3.5013 16.8301 3.6091 16.4566 3.8049C16.1883 3.94991 15.8876 4.02514 15.5823 4.0236C15.277 4.02206 14.977 3.94381 14.7102 3.7961C14.4491 3.64243 14.2314 3.42524 14.0777 3.16491C13.9241 2.90458 13.8393 2.60965 13.8316 2.3078C13.815 1.8898 13.7752 1.6038 13.6713 1.3585C13.5593 1.09069 13.3952 0.847563 13.1885 0.643111C12.9817 0.43866 12.7364 0.27692 12.4666 0.1672ZM10.5003 14.3C12.3461 14.3 13.8415 12.8227 13.8415 11C13.8415 9.1773 12.345 7.7 10.5003 7.7C8.65564 7.7 7.15912 9.1773 7.15912 11C7.15912 12.8227 8.65564 14.3 10.5003 14.3Z" fill="white"/>
</svg>
